<svg id="圖層_1" data-name="圖層 1" xmlns="http://www.w3.org/2000/svg" fill="#fff" viewBox="0 0 36 36"><title>工作區域 1</title><path d="M18.53,22.58a4.16,4.16,0,0,1-.42-1.76,3.07,3.07,0,0,1,.35-1.38,8.66,8.66,0,0,1,1.83-2A9.18,9.18,0,0,0,22.42,15,4.94,4.94,0,0,0,23,12.61a4.1,4.1,0,0,0-1.48-3.38A6.07,6.07,0,0,0,17.57,8,8.57,8.57,0,0,0,13,9.34v3a5.74,5.74,0,0,1,4.19-1.83,3.12,3.12,0,0,1,2,.66A2.25,2.25,0,0,1,20,13a3.15,3.15,0,0,1-.39,1.48,9.27,9.27,0,0,1-1.9,2.13A8.69,8.69,0,0,0,16,18.71a4.13,4.13,0,0,0-.48,1.94,6,6,0,0,0,.31,1.93ZM16,27.89a1.93,1.93,0,0,0,1.41.53,1.78,1.78,0,0,0,1.27-.51,1.7,1.7,0,0,0,.55-1.26,1.66,1.66,0,0,0-.57-1.29,1.92,1.92,0,0,0-1.31-.52,1.86,1.86,0,0,0-1.34.54,1.7,1.7,0,0,0,0,2.51Z"/><path d="M18,36A18,18,0,1,1,36,18,18,18,0,0,1,18,36ZM18,2A16,16,0,1,0,34,18,16.06,16.06,0,0,0,18,2Z"/></svg>