<svg id="圖層_1" data-name="圖層 1" xmlns="http://www.w3.org/2000/svg" fill="#fff" viewBox="0 0 36 36"><title>工作區域 1 複本 2</title><path d="M3.28,29.55a3.55,3.55,0,0,1-.77-.07,1.62,1.62,0,0,1-1.07-.7c-.53-1.09.28-1.89,1-2.6S4,24.62,4,23.74a11,11,0,0,1-4-8.26C0,8.73,6.84,3.23,15.24,3.23s15.25,5.5,15.25,12.25S23.65,27.74,15.24,27.74A19.06,19.06,0,0,1,11,27.25,19.3,19.3,0,0,1,3.28,29.55Zm12-24.37C7.91,5.18,2,9.8,2,15.48a9.15,9.15,0,0,0,3.58,7l.29.24,0,.37c.32,2.09-1.11,3.51-2.06,4.44l0,0a18.41,18.41,0,0,0,6.47-2.2l.36-.24.42.11a16.81,16.81,0,0,0,4.21.53c7.34,0,13.3-4.62,13.3-10.31S22.58,5.18,15.24,5.18Z"/><path d="M32.06,27.52A10,10,0,0,0,36,19.84c0-3.33-1.9-6.29-4.88-8.33a11.31,11.31,0,0,1,.73,4C31.85,23,24.4,29.1,15.24,29.1c-.51,0-1,0-1.53-.08a17.07,17.07,0,0,0,8,1.95,17.93,17.93,0,0,0,4.46-.55c2.23,1.44,7.89,3,8.51,2C35.15,31.53,31.66,30.17,32.06,27.52Z"/></svg>